<svg xmlns="http://www.w3.org/2000/svg" viewBox="0 0 24 24">
  <path fill="#C5C5C5" d="M14.55 2.5c2.1-.72 4.2-.8 5.7-.72a1.5 1.5 0 0 1 1.42 1.42c.08 1.5 0 3.6-.72 5.7-.64 1.87-1.72 3.7-3.42 5.4l-2.18 2.18-7.83-7.83L9.7 6.47c1.7-1.7 3.53-2.78 5.4-3.42l-.55-.55Zm2.2 3.25a2.5 2.5 0 1 0 0 5 2.5 2.5 0 0 0 0-5ZM6.78 9.72l2.5 2.5-3.82.9-2.78 2.78a.75.75 0 0 1-1.28-.57l.17-3.15a2 2 0 0 1 1.43-1.8l3.78-1.1v.44Zm5 5 2.5 2.5-1.1 3.78a2 2 0 0 1-1.8 1.43l-3.15.17a.75.75 0 0 1-.57-1.28l2.78-2.78.9-3.82h.44ZM7.1 15.55l1.35 1.35-3.7 3.7a.95.95 0 0 1-1.35-1.35l3.7-3.7Z"/>
</svg>
